{
  "accessors": [
    {
      "bufferView": 2,
      "componentType": 5126,
      "count": 231,
      "max": [
        0.3778088092803955,
        0.37780871987342834,
        0.9984750151634216
      ],
      "min": [
        -0.3778088688850403,
        -0.37780892848968506,
        0.001723100314848125
      ],
      "type": "VEC3"
    },
    {
      "bufferView": 2,
      "byteOffset": 2772,
      "componentType": 5126,
      "count": 231,
      "max": [
        0.9998688697814941,
        0.9998688697814941,
        0.04332973435521126
      ],
      "min": [
        -0.9998688697814941,
        -0.9998689293861389,
        -1.0
      ],
      "type": "VEC3"
    },
    {
      "bufferView": 3,
      "componentType": 5126,
      "count": 231,
      "max": [
        0.17591390013694763,
        0.9439041614532471,
        7.379318933686818e-09,
        1.0
      ],
      "min": [
        -0.33031734824180603,
        -0.15576030313968658,
        -0.9998667240142822,
        1.0
      ],
      "type": "VEC4"
    },
    {
      "bufferView": 1,
      "componentType": 5126,
      "count": 231,
      "max": [
        0.7732003927230835,
        0.9135115742683411
      ],
      "min": [
        0.04159645736217499,
        0.04159645736217499
      ],
      "type": "VEC2"
    },
    {
      "bufferView": 1,
      "byteOffset": 1848,
      "componentType": 5126,
      "count": 231,
      "max": [
        0.7732003927230835,
        0.9135115742683411
      ],
      "min": [
        0.04159645736217499,
        0.04159645736217499
      ],
      "type": "VEC2"
    },
    {
      "bufferView": 0,
      "componentType": 5125,
      "count": 1086,
      "type": "SCALAR"
    },
    {
      "bufferView": 2,
      "byteOffset": 5544,
      "componentType": 5126,
      "count": 154,
      "max": [
        0.3888441324234009,
        0.04573192447423935,
        0.9228941798210144
      ],
      "min": [
        -0.3888441324234009,
        -0.04573192447423935,
        0.844065248966217
      ],
      "type": "VEC3"
    },
    {
      "bufferView": 2,
      "byteOffset": 7392,
      "componentType": 5126,
      "count": 154,
      "max": [
        0.9970058798789978,
        1.0,
        0.9946398138999939
      ],
      "min": [
        -0.9970058798789978,
        -1.0,
        -0.9946426153182983
      ],
      "type": "VEC3"
    },
    {
      "bufferView": 3,
      "byteOffset": 3696,
      "componentType": 5126,
      "count": 154,
      "max": [
        0.99464350938797,
        3.710379678523168e-05,
        0.10344099253416061,
        1.0
      ],
      "min": [
        -0.9946451783180237,
        -0.9999984502792358,
        -0.045227520167827606,
        1.0
      ],
      "type": "VEC4"
    },
    {
      "bufferView": 1,
      "byteOffset": 3696,
      "componentType": 5126,
      "count": 154,
      "max": [
        0.8615584969520569,
        0.9505615830421448
      ],
      "min": [
        0.5194692611694336,
        0.4186365008354187
      ],
      "type": "VEC2"
    },
    {
      "bufferView": 1,
      "byteOffset": 4928,
      "componentType": 5126,
      "count": 154,
      "max": [
        0.8615584969520569,
        0.9505615830421448
      ],
      "min": [
        0.5194692611694336,
        0.4186365008354187
      ],
      "type": "VEC2"
    },
    {
      "bufferView": 0,
      "byteOffset": 4344,
      "componentType": 5125,
      "count": 336,
      "type": "SCALAR"
    },
    {
      "bufferView": 2,
      "byteOffset": 9240,
      "componentType": 5126,
      "count": 169,
      "max": [
        0.10166170448064804,
        0.024415094405412674,
        1.12602961063385
      ],
      "min": [
        -0.10166170448064804,
        -0.026208627969026566,
        1.0842475891113281
      ],
      "type": "VEC3"
    },
    {
      "bufferView": 2,
      "byteOffset": 11268,
      "componentType": 5126,
      "count": 169,
      "max": [
        1.0,
        0.9999924898147583,
        1.0
      ],
      "min": [
        -1.0,
        -0.9998178482055664,
        -1.0
      ],
      "type": "VEC3"
    },
    {
      "bufferView": 3,
      "byteOffset": 6160,
      "componentType": 5126,
      "count": 169,
      "max": [
        0.28282430768013,
        0.9999991655349731,
        0.6741119027137756,
        1.0
      ],
      "min": [
        -0.2954869568347931,
        -1.0,
        -0.9999997019767761,
        1.0
      ],
      "type": "VEC4"
    },
    {
      "bufferView": 1,
      "byteOffset": 6160,
      "componentType": 5126,
      "count": 169,
      "max": [
        0.958403468132019,
        0.8338165879249573
      ],
      "min": [
        0.5194692611694336,
        0.04159645736217499
      ],
      "type": "VEC2"
    },
    {
      "bufferView": 1,
      "byteOffset": 7512,
      "componentType": 5126,
      "count": 169,
      "max": [
        0.958403468132019,
        0.8338165879249573
      ],
      "min": [
        0.5194692611694336,
        0.04159645736217499
      ],
      "type": "VEC2"
    },
    {
      "bufferView": 0,
      "byteOffset": 5688,
      "componentType": 5125,
      "count": 372,
      "type": "SCALAR"
    },
    {
      "bufferView": 2,
      "byteOffset": 13296,
      "componentType": 5126,
      "count": 494,
      "max": [
        0.3772240877151489,
        0.07018935680389404,
        0.8874648809432983
      ],
      "min": [
        -0.3772240877151489,
        -0.07018935680389404,
        0.8051856756210327
      ],
      "type": "VEC3"
    },
    {
      "bufferView": 2,
      "byteOffset": 19224,
      "componentType": 5126,
      "count": 494,
      "max": [
        0.9999959468841553,
        0.9999992251396179,
        1.0
      ],
      "min": [
        -0.9999959468841553,
        -0.9999992251396179,
        -1.0
      ],
      "type": "VEC3"
    },
    {
      "bufferView": 3,
      "byteOffset": 8864,
      "componentType": 5126,
      "count": 494,
      "max": [
        1.0,
        0.9982796907424927,
        0.9999958872795105,
        1.0
      ],
      "min": [
        -1.0,
        -0.9982780814170837,
        -0.9999960064888,
        1.0
      ],
      "type": "VEC4"
    },
    {
      "bufferView": 1,
      "byteOffset": 8864,
      "componentType": 5126,
      "count": 494,
      "max": [
        0.8633195161819458,
        0.9024303555488586
      ],
      "min": [
        0.7196938395500183,
        0.7555605173110962
      ],
      "type": "VEC2"
    },
    {
      "bufferView": 1,
      "byteOffset": 12816,
      "componentType": 5126,
      "count": 494,
      "max": [
        0.8633195161819458,
        0.9024303555488586
      ],
      "min": [
        0.7196938395500183,
        0.7555605173110962
      ],
      "type": "VEC2"
    },
    {
      "bufferView": 0,
      "byteOffset": 7176,
      "componentType": 5125,
      "count": 2592,
      "type": "SCALAR"
    },
    {
      "bufferView": 2,
      "byteOffset": 25152,
      "componentType": 5126,
      "count": 281,
      "max": [
        0.3946393132209778,
        0.3946393132209778,
        1.0850894451141357
      ],
      "min": [
        -0.3946393132209778,
        -0.3946393132209778,
        0.9672003388404846
      ],
      "type": "VEC3"
    },
    {
      "bufferView": 2,
      "byteOffset": 28524,
      "componentType": 5126,
      "count": 281,
      "max": [
        0.9713167548179626,
        0.9713165760040283,
        1.0
      ],
      "min": [
        -0.9713166952133179,
        -0.9713169932365417,
        0.2377883791923523
      ],
      "type": "VEC3"
    },
    {
      "bufferView": 3,
      "byteOffset": 16768,
      "componentType": 5126,
      "count": 281,
      "max": [
        -0.032610148191452026,
        0.8270352482795715,
        0.9700708389282227,
        -1.0
      ],
      "min": [
        -0.8135228753089905,
        0.06105337291955948,
        -0.970111072063446,
        -1.0
      ],
      "type": "VEC4"
    },
    {
      "bufferView": 1,
      "byteOffset": 16768,
      "componentType": 5126,
      "count": 281,
      "max": [
        0.8133667707443237,
        0.3354435861110687
      ],
      "min": [
        0.5194692611694336,
        0.04159645736217499
      ],
      "type": "VEC2"
    },
    {
      "bufferView": 1,
      "byteOffset": 19016,
      "componentType": 5126,
      "count": 281,
      "max": [
        0.8133667707443237,
        0.3354435861110687
      ],
      "min": [
        0.5194692611694336,
        0.04159645736217499
      ],
      "type": "VEC2"
    },
    {
      "bufferView": 0,
      "byteOffset": 17544,
      "componentType": 5125,
      "count": 1596,
      "type": "SCALAR"
    }
  ],
  "asset": {
    "extras": {
      "author": "erik.sw.19 (https://sketchfab.com/erik.sw.19)",
      "license": "CC-BY-4.0 (http://creativecommons.org/licenses/by/4.0/)",
      "source": "https://sketchfab.com/3d-models/garbage-bin-d70e1d9cbef24eabbaea329896ea08a7",
      "title": "Garbage Bin"
    },
    "generator": "Sketchfab-12.66.0",
    "version": "2.0"
  },
  "bufferViews": [
    {
      "buffer": 0,
      "byteLength": 23928,
      "name": "floatBufferViews",
      "target": 34963
    },
    {
      "buffer": 0,
      "byteLength": 21264,
      "byteOffset": 23928,
      "byteStride": 8,
      "name": "floatBufferViews",
      "target": 34962
    },
    {
      "buffer": 0,
      "byteLength": 31896,
      "byteOffset": 45192,
      "byteStride": 12,
      "name": "floatBufferViews",
      "target": 34962
    },
    {
      "buffer": 0,
      "byteLength": 21264,
      "byteOffset": 77088,
      "byteStride": 16,
      "name": "floatBufferViews",
      "target": 34962
    }
  ],
  "buffers": [
    {
      "byteLength": 98352,
      "uri": "scene.bin"
    }
  ],
  "images": [
    {
      "uri": "textures/Trash_Mat_V2_baseColor.png"
    },
    {
      "uri": "textures/Trash_Mat_V2_metallicRoughness.png"
    },
    {
      "uri": "textures/Trash_Mat_V2_normal.png"
    }
  ],
  "materials": [
    {
      "doubleSided": true,
      "name": "Trash_Mat_V2",
      "normalTexture": {
        "index": 2
      },
      "pbrMetallicRoughness": {
        "baseColorTexture": {
          "index": 0
        },
        "metallicRoughnessTexture": {
          "index": 1
        }
      }
    }
  ],
  "meshes": [
    {
      "name": "Trash_Body_low_Trash Mat V2_0",
      "primitives": [
        {
          "attributes": {
            "NORMAL": 1,
            "POSITION": 0,
            "TANGENT": 2,
            "TEXCOORD_0": 3,
            "TEXCOORD_1": 4
          },
          "indices": 5,
          "material": 0,
          "mode": 4
        }
      ]
    },
    {
      "name": "Trash_Handle_Base_Low_Trash Mat V2_0",
      "primitives": [
        {
          "attributes": {
            "NORMAL": 7,
            "POSITION": 6,
            "TANGENT": 8,
            "TEXCOORD_0": 9,
            "TEXCOORD_1": 10
          },
          "indices": 11,
          "material": 0,
          "mode": 4
        }
      ]
    },
    {
      "name": "Trash_Lid_Handle_low_Trash Mat V2_0",
      "primitives": [
        {
          "attributes": {
            "NORMAL": 13,
            "POSITION": 12,
            "TANGENT": 14,
            "TEXCOORD_0": 15,
            "TEXCOORD_1": 16
          },
          "indices": 17,
          "material": 0,
          "mode": 4
        }
      ]
    },
    {
      "name": "Trash_Handle_low_Trash Mat V2_0",
      "primitives": [
        {
          "attributes": {
            "NORMAL": 19,
            "POSITION": 18,
            "TANGENT": 20,
            "TEXCOORD_0": 21,
            "TEXCOORD_1": 22
          },
          "indices": 23,
          "material": 0,
          "mode": 4
        }
      ]
    },
    {
      "name": "Trash_Lid_low_Trash Mat V2_0",
      "primitives": [
        {
          "attributes": {
            "NORMAL": 25,
            "POSITION": 24,
            "TANGENT": 26,
            "TEXCOORD_0": 27,
            "TEXCOORD_1": 28
          },
          "indices": 29,
          "material": 0,
          "mode": 4
        }
      ]
    }
  ],
  "nodes": [
    {
      "children": [
        1
      ],
      "matrix": [
        0.007652834057807922,
        0.0,
        0.0,
        0.0,
        0.0,
        1.6992705149227843e-18,
        -0.007652834057807922,
        0.0,
        0.0,
        0.007652834057807922,
        1.6992705149227843e-18,
        0.0,
        0.0,
        0.0,
        0.0,
        1.0
      ],
      "name": "Sketchfab_model"
    },
    {
      "children": [
        2
      ],
      "matrix": [
        1.0,
        0.0,
        0.0,
        0.0,
        0.0,
        0.0,
        1.0,
        0.0,
        0.0,
        -1.0,
        0.0,
        0.0,
        0.0,
        0.0,
        0.0,
        1.0
      ],
      "name": "5d52e79045a24ab48a1bbf784362716d.fbx"
    },
    {
      "children": [
        3,
        5,
        7,
        9,
        11
      ],
      "name": "RootNode"
    },
    {
      "children": [
        4
      ],
      "matrix": [
        100.0,
        0.0,
        0.0,
        0.0,
        0.0,
        -1.629206793918314e-05,
        -99.99999999999868,
        0.0,
        0.0,
        99.99999999999868,
        -1.629206793918314e-05,
        0.0,
        3.5922444112657104e-06,
        0.0,
        -1.170805626315996e-05,
        1.0
      ],
      "name": "Trash_Body_low"
    },
    {
      "mesh": 0,
      "name": "Trash_Body_low_Trash Mat V2_0"
    },
    {
      "children": [
        6
      ],
      "matrix": [
        100.0,
        0.0,
        0.0,
        0.0,
        0.0,
        -1.629206793918314e-05,
        -99.99999999999868,
        0.0,
        0.0,
        99.99999999999868,
        -1.629206793918314e-05,
        0.0,
        0.0,
        0.0,
        0.0,
        1.0
      ],
      "name": "Trash_Handle_Base_Low"
    },
    {
      "mesh": 1,
      "name": "Trash_Handle_Base_Low_Trash Mat V2_0"
    },
    {
      "children": [
        8
      ],
      "matrix": [
        100.0,
        0.0,
        0.0,
        0.0,
        0.0,
        -1.629206793918314e-05,
        -99.99999999999868,
        0.0,
        0.0,
        99.99999999999868,
        -1.629206793918314e-05,
        0.0,
        3.5922444112657104e-06,
        0.0,
        -1.170805626315996e-05,
        1.0
      ],
      "name": "Trash_Lid_Handle_low"
    },
    {
      "mesh": 2,
      "name": "Trash_Lid_Handle_low_Trash Mat V2_0"
    },
    {
      "children": [
        10
      ],
      "matrix": [
        100.0,
        0.0,
        0.0,
        0.0,
        0.0,
        -1.629206793918314e-05,
        -99.99999999999868,
        0.0,
        0.0,
        99.99999999999868,
        -1.629206793918314e-05,
        0.0,
        0.0,
        0.0,
        0.0,
        1.0
      ],
      "name": "Trash_Handle_low"
    },
    {
      "mesh": 3,
      "name": "Trash_Handle_low_Trash Mat V2_0"
    },
    {
      "children": [
        12
      ],
      "matrix": [
        100.0,
        0.0,
        0.0,
        0.0,
        0.0,
        -1.629206793918314e-05,
        -99.99999999999868,
        0.0,
        0.0,
        99.99999999999868,
        -1.629206793918314e-05,
        0.0,
        0.0,
        0.0,
        0.0,
        1.0
      ],
      "name": "Trash_Lid_low"
    },
    {
      "mesh": 4,
      "name": "Trash_Lid_low_Trash Mat V2_0"
    }
  ],
  "samplers": [
    {
      "magFilter": 9729,
      "minFilter": 9987,
      "wrapS": 10497,
      "wrapT": 10497
    }
  ],
  "scene": 0,
  "scenes": [
    {
      "name": "Sketchfab_Scene",
      "nodes": [
        0
      ]
    }
  ],
  "textures": [
    {
      "sampler": 0,
      "source": 0
    },
    {
      "sampler": 0,
      "source": 1
    },
    {
      "sampler": 0,
      "source": 2
    }
  ]
}
